# xmcd
#
# Track frame offsets:
#	150
#	13947
#	33327
#	52152
#	74400
#	104765
#	127042
#	152565
#	169740
#	188937
#
# Disc length: 2754 seconds
#
# Revision: 1
# Processed by: cddbd v1.4PL0 Copyright (c) Steve Scherf et al.
# Submitted via: audiograbber 1.80.04
#
DISCID=910ac00a
DTITLE=위로가 필요한 사람들 - 위로가 필요한 사람들
DYEAR=2001
DGENRE=Contemporary Christian Music
TTITLE0=소리엘 - 위로송
TTITLE1=김종섭 - 평안함으로
TTITLE2=아침 - 수고하고
TTITLE3=이현덕 - 이젠 슬퍼말아요
TTITLE4=마르지 않는 샘 - 희망..예수
TTITLE5=에이맨 - 너를 향한
TTITLE6=나무 - 의지
TTITLE7=김지애 - 내 영혼 소망가득
TTITLE8=아름다운 땅 - 민들레와 소나무
TTITLE9=최인혁 - 주여 인도하소서
EXTD=
EXTT0=
EXTT1=
EXTT2=
EXTT3=
EXTT4=
EXTT5=
EXTT6=
EXTT7=
EXTT8=
EXTT9=
PLAYORDER=
